<svg xmlns="http://www.w3.org/2000/svg" viewBox="0 0 500 500" role="img" aria-labelledby="t"><title id="t">Casa EME</title><circle cx="250" cy="250" r="250" fill="#F3E6D6"/><g fill="none" stroke="#74501C" stroke-width="3.4"><circle cx="250" cy="250" r="229"/><circle cx="250" cy="250" r="204"/></g><path fill="#74501C" d="M88.31 272.42Q82.22 272.42 77.55 269.64Q72.88 266.85 70.27 261.87Q67.67 256.89 67.67 250.4Q67.67 245.44 69.28 241.25Q70.88 237.07 73.76 233.95Q76.64 230.82 80.55 229.11Q84.45 227.39 89.08 227.39Q91.38 227.39 93.86 227.93Q96.34 228.46 98.64 229.48Q99.86 230 100.37 230.16Q100.87 230.33 101.21 230.33Q101.85 230.33 102.27 229.78Q102.68 229.23 102.84 228.25H104.83L104.7 235.42L104.83 242.89H102.8Q101.76 236.64 98.27 233.24Q94.78 229.84 89.42 229.84Q82.89 229.84 79.52 235.05Q76.15 240.26 76.15 250.34Q76.15 269.97 89.05 269.97Q94.59 269.97 98.33 266.47Q102.07 262.96 103.11 256.8H104.95L104.83 264.58L105.01 271.75H103.08L102.96 271.29Q102.41 269.39 101.03 269.39Q100.66 269.39 100.12 269.54Q99.59 269.7 98.7 270.1Q95.97 271.29 93.43 271.86Q90.89 272.42 88.31 272.42ZM113.77 271.93V269.94L114.35 269.88Q116.22 269.67 117.36 269.13Q118.49 268.59 119.38 267.23Q120.27 265.87 121.31 263.3L135.8 228.1H140.15L154.45 264.83Q155.53 267.49 156.67 268.55Q157.82 269.61 159.91 269.82L161.13 269.94V271.93L152.34 271.75L142.54 271.93V269.94L143.82 269.82Q146.34 269.57 146.99 268.2Q147.65 266.82 146.64 264.18L134.54 232.91H136.75L124.34 263.05Q123.45 265.26 123.44 266.7Q123.42 268.14 124.42 268.89Q125.41 269.64 127.4 269.82L128.94 269.94V271.93L120.91 271.78ZM126.36 256.83 127.16 254.2H144.5L145.23 256.83ZM186.22 272.42Q183.86 272.42 181.82 271.75Q179.79 271.08 177.58 270.03Q175.9 269.21 175.05 268.89Q174.21 268.56 173.6 268.56Q172.77 268.56 172.39 269.16Q172.01 269.76 171.76 270.83L171.55 271.75H169.56L169.89 264.52L169.68 256.31H171.67L172.68 259.5Q173.6 262.31 175.45 264.7Q177.31 267.09 179.89 268.55Q182.48 270 185.55 270Q187.66 270 189.36 269.19Q191.06 268.38 192.07 266.77Q193.08 265.16 193.08 262.74Q193.08 260.45 192.09 258.75Q191.09 257.05 189.02 255.59Q186.96 254.14 183.65 252.63L179.6 250.77Q175.25 248.71 173.06 245.9Q170.87 243.08 170.87 239.03Q170.87 235.6 172.56 232.97Q174.24 230.33 177.23 228.86Q180.22 227.39 184.11 227.39Q186.34 227.39 188.07 227.93Q189.8 228.46 191.46 229.23Q193.2 230.03 194.22 230.03Q195.44 230.03 195.66 228.04H197.65L197.43 234.01L197.55 240.26H195.56Q195.01 236.98 193.43 234.64Q191.86 232.29 189.65 231.04Q187.45 229.78 184.84 229.78Q181.47 229.78 179.39 231.62Q177.31 233.46 177.31 236.34Q177.31 239.19 179.3 241.04Q181.29 242.89 185.06 244.67L188.76 246.39Q192.13 247.95 194.48 249.86Q196.82 251.78 198.08 254.23Q199.33 256.68 199.33 259.89Q199.33 263.6 197.62 266.44Q195.9 269.27 192.94 270.85Q189.99 272.42 186.22 272.42ZM207.45 271.93V269.94L208.03 269.88Q209.9 269.67 211.03 269.13Q212.17 268.59 213.06 267.23Q213.94 265.87 214.99 263.3L229.48 228.1H233.83L248.13 264.83Q249.2 267.49 250.35 268.55Q251.5 269.61 253.58 269.82L254.81 269.94V271.93L246.02 271.75L236.21 271.93V269.94L237.5 269.82Q240.01 269.57 240.67 268.2Q241.33 266.82 240.32 264.18L228.22 232.91H230.43L218.02 263.05Q217.13 265.26 217.11 266.7Q217.1 268.14 218.09 268.89Q219.09 269.64 221.08 269.82L222.61 269.94V271.93L214.59 271.78ZM220.04 256.83 220.84 254.2H238.18L238.91 256.83ZM283.08 271.93V269.91L284.31 269.79Q286.36 269.54 287.34 269.05Q288.32 268.56 288.64 267.31Q288.97 266.05 288.97 263.6V236.4Q288.97 233.92 288.64 232.66Q288.32 231.41 287.33 230.88Q286.33 230.36 284.31 230.18L283.08 230.06V228.07L292.46 228.25H308.73L316.84 228.07L316.97 232.66L317.46 238.91H315.5Q315.07 236.34 314.3 234.7Q313.53 233.06 312.17 232.14Q310.81 231.22 308.56 230.85Q306.3 230.49 302.87 230.49H296.32V265.19Q296.32 267.74 297.57 268.64Q298.83 269.54 302.38 269.54H305.94Q309.74 269.54 311.97 268.55Q314.21 267.55 315.33 265.09Q316.44 262.62 316.84 258.27H318.86L318.44 266.24L318.25 271.75H292.46ZM306.76 258.21Q306.64 253.86 305.23 251.9Q303.82 249.94 300.73 249.94H294.73V247.73H300.73Q303.7 247.73 305.06 246.03Q306.43 244.33 306.76 240.32H308.76L308.57 248.84L308.76 258.21ZM328.51 271.93V269.94L330.05 269.82Q332.19 269.61 333.25 269.12Q334.3 268.63 334.66 267.34Q335.01 266.05 335.01 263.6V236.4Q335.01 233.92 334.69 232.66Q334.37 231.41 333.37 230.88Q332.37 230.36 330.35 230.18L329.13 230.06V228.07L338.65 228.25H343.74L358.6 263.33L355.59 265.56L371.92 228.25H376.85L386.14 228.07V230.06L384.91 230.18Q382.92 230.36 381.92 230.88Q380.93 231.41 380.59 232.66Q380.25 233.92 380.25 236.4V263.6Q380.25 266.08 380.58 267.34Q380.9 268.59 381.91 269.08Q382.92 269.57 384.91 269.79L386.14 269.91V271.93L376.58 271.75L367.02 271.93V269.91L368.25 269.79Q370.3 269.57 371.28 269.08Q372.26 268.59 372.58 267.34Q372.9 266.08 372.9 263.6V229.9L374.16 229.97L355.81 271.75H354.03L336.51 230.15L337.77 230.09V264.46Q337.77 266.48 338.15 267.58Q338.53 268.69 339.62 269.16Q340.71 269.64 342.73 269.82L344.26 269.94V271.93L336.33 271.78ZM396.55 271.93V269.91L397.78 269.79Q399.83 269.54 400.81 269.05Q401.79 268.56 402.11 267.31Q402.43 266.05 402.43 263.6V236.4Q402.43 233.92 402.11 232.66Q401.79 231.41 400.79 230.88Q399.8 230.36 397.78 230.18L396.55 230.06V228.07L405.93 228.25H422.19L430.31 228.07L430.43 232.66L430.92 238.91H428.96Q428.53 236.34 427.77 234.7Q427 233.06 425.64 232.14Q424.28 231.22 422.02 230.85Q419.77 230.49 416.34 230.49H409.79V265.19Q409.79 267.74 411.04 268.64Q412.3 269.54 415.85 269.54H419.4Q423.2 269.54 425.44 268.55Q427.68 267.55 428.79 265.09Q429.91 262.62 430.31 258.27H432.33L431.9 266.24L431.72 271.75H405.93ZM420.23 258.21Q420.11 253.86 418.7 251.9Q417.29 249.94 414.2 249.94H408.19V247.73H414.2Q417.17 247.73 418.53 246.03Q419.9 244.33 420.23 240.32H422.22L422.04 248.84L422.22 258.21Z"/></svg>
